G04 #@! TF.GenerationSoftware,KiCad,Pcbnew,(5.0.1)-4*
G04 #@! TF.CreationDate,2020-03-07T20:01:28+01:00*
G04 #@! TF.ProjectId,schemas_screen_led_64x32,736368656D61735F73637265656E5F6C,rev?*
G04 #@! TF.SameCoordinates,PX5f5e100PY7270e00*
G04 #@! TF.FileFunction,Copper,L2,Bot,Signal*
G04 #@! TF.FilePolarity,Positive*
%FSLAX46Y46*%
G04 Gerber Fmt 4.6, Leading zero omitted, Abs format (unit mm)*
G04 Created by KiCad (PCBNEW (5.0.1)-4) date 07/03/2020 20:01:28*
%MOMM*%
%LPD*%
G01*
G04 APERTURE LIST*
G04 #@! TA.AperFunction,ComponentPad*
%ADD10R,1.727200X1.727200*%
G04 #@! TD*
G04 #@! TA.AperFunction,ComponentPad*
%ADD11C,1.727200*%
G04 #@! TD*
G04 #@! TA.AperFunction,ComponentPad*
%ADD12O,1.727200X1.727200*%
G04 #@! TD*
G04 #@! TA.AperFunction,ComponentPad*
%ADD13C,1.800000*%
G04 #@! TD*
G04 #@! TA.AperFunction,ComponentPad*
%ADD14C,2.800000*%
G04 #@! TD*
G04 #@! TA.AperFunction,ComponentPad*
%ADD15O,2.800000X2.800000*%
G04 #@! TD*
G04 #@! TA.AperFunction,ComponentPad*
%ADD16R,2.400000X2.400000*%
G04 #@! TD*
G04 #@! TA.AperFunction,ComponentPad*
%ADD17C,2.400000*%
G04 #@! TD*
G04 #@! TA.AperFunction,ViaPad*
%ADD18C,3.000000*%
G04 #@! TD*
G04 #@! TA.AperFunction,ViaPad*
%ADD19C,1.000000*%
G04 #@! TD*
G04 #@! TA.AperFunction,ViaPad*
%ADD20C,2.400000*%
G04 #@! TD*
G04 #@! TA.AperFunction,Conductor*
%ADD21C,0.800000*%
G04 #@! TD*
G04 #@! TA.AperFunction,Conductor*
%ADD22C,0.254000*%
G04 #@! TD*
G04 APERTURE END LIST*
D10*
G04 #@! TO.P,XA1,D1*
G04 #@! TO.N,Net-(XA1-PadD1)*
X18110000Y1890000D03*
D11*
G04 #@! TO.P,XA1,D0*
G04 #@! TO.N,Net-(XA1-PadD0)*
X20650000Y1890000D03*
G04 #@! TO.P,XA1,RST1*
G04 #@! TO.N,Net-(XA1-PadRST1)*
X23190000Y1890000D03*
G04 #@! TO.P,XA1,GND1*
G04 #@! TO.N,GND*
X25730000Y1890000D03*
G04 #@! TO.P,XA1,D2*
G04 #@! TO.N,Net-(XA1-PadD2)*
X28270000Y1890000D03*
G04 #@! TO.P,XA1,D3*
G04 #@! TO.N,Net-(XA1-PadD3)*
X30810000Y1890000D03*
G04 #@! TO.P,XA1,D4*
G04 #@! TO.N,Net-(XA1-PadD4)*
X33350000Y1890000D03*
G04 #@! TO.P,XA1,D5*
G04 #@! TO.N,Net-(XA1-PadD5)*
X35890000Y1890000D03*
G04 #@! TO.P,XA1,D6*
G04 #@! TO.N,Net-(XA1-PadD6)*
X38430000Y1890000D03*
G04 #@! TO.P,XA1,D7*
G04 #@! TO.N,Net-(XA1-PadD7)*
X40970000Y1890000D03*
G04 #@! TO.P,XA1,D8*
G04 #@! TO.N,LAT*
X43510000Y1890000D03*
G04 #@! TO.P,XA1,D9*
G04 #@! TO.N,Net-(XA1-PadD9)*
X46050000Y1890000D03*
G04 #@! TO.P,XA1,D10*
G04 #@! TO.N,Net-(XA1-PadD10)*
X48590000Y1890000D03*
G04 #@! TO.P,XA1,D11*
G04 #@! TO.N,Net-(XA1-PadD11)*
X51130000Y1890000D03*
G04 #@! TO.P,XA1,D12*
G04 #@! TO.N,Net-(XA1-PadD12)*
X53670000Y1890000D03*
G04 #@! TO.P,XA1,D13*
G04 #@! TO.N,Net-(XA1-PadD13)*
X53670000Y17130000D03*
G04 #@! TO.P,XA1,3V3*
G04 #@! TO.N,Net-(XA1-Pad3V3)*
X51130000Y17130000D03*
G04 #@! TO.P,XA1,AREF*
G04 #@! TO.N,Net-(XA1-PadAREF)*
X48590000Y17130000D03*
G04 #@! TO.P,XA1,A0*
G04 #@! TO.N,Net-(XA1-PadA0)*
X46050000Y17130000D03*
G04 #@! TO.P,XA1,A1*
G04 #@! TO.N,A*
X43510000Y17130000D03*
G04 #@! TO.P,XA1,A2*
G04 #@! TO.N,B*
X40970000Y17130000D03*
G04 #@! TO.P,XA1,A3*
G04 #@! TO.N,C*
X38430000Y17130000D03*
G04 #@! TO.P,XA1,A4*
G04 #@! TO.N,D*
X35890000Y17130000D03*
G04 #@! TO.P,XA1,A5*
G04 #@! TO.N,Net-(XA1-PadA5)*
X33350000Y17130000D03*
G04 #@! TO.P,XA1,A6*
G04 #@! TO.N,Net-(XA1-PadA6)*
X30810000Y17130000D03*
G04 #@! TO.P,XA1,A7*
G04 #@! TO.N,Net-(XA1-PadA7)*
X28270000Y17130000D03*
G04 #@! TO.P,XA1,5V*
G04 #@! TO.N,+5V*
X25730000Y17130000D03*
G04 #@! TO.P,XA1,RST2*
G04 #@! TO.N,Net-(XA1-PadRST2)*
X23190000Y17130000D03*
G04 #@! TO.P,XA1,GND2*
G04 #@! TO.N,GND*
X20650000Y17130000D03*
G04 #@! TO.P,XA1,VIN*
G04 #@! TO.N,Net-(XA1-PadVIN)*
X18110000Y17130000D03*
G04 #@! TD*
D10*
G04 #@! TO.P,J1,1*
G04 #@! TO.N,R1*
X13030000Y35545000D03*
D12*
G04 #@! TO.P,J1,2*
G04 #@! TO.N,G1*
X10490000Y35545000D03*
G04 #@! TO.P,J1,3*
G04 #@! TO.N,B1*
X13030000Y38085000D03*
G04 #@! TO.P,J1,4*
G04 #@! TO.N,GND*
X10490000Y38085000D03*
G04 #@! TO.P,J1,5*
G04 #@! TO.N,R2*
X13030000Y40625000D03*
G04 #@! TO.P,J1,6*
G04 #@! TO.N,G2*
X10490000Y40625000D03*
G04 #@! TO.P,J1,7*
G04 #@! TO.N,B2*
X13030000Y43165000D03*
G04 #@! TO.P,J1,8*
G04 #@! TO.N,GND*
X10490000Y43165000D03*
G04 #@! TO.P,J1,9*
G04 #@! TO.N,A*
X13030000Y45705000D03*
G04 #@! TO.P,J1,10*
G04 #@! TO.N,B*
X10490000Y45705000D03*
G04 #@! TO.P,J1,11*
G04 #@! TO.N,C*
X13030000Y48245000D03*
G04 #@! TO.P,J1,12*
G04 #@! TO.N,D*
X10490000Y48245000D03*
G04 #@! TO.P,J1,13*
G04 #@! TO.N,CLK*
X13030000Y50785000D03*
G04 #@! TO.P,J1,14*
G04 #@! TO.N,LAT*
X10490000Y50785000D03*
G04 #@! TO.P,J1,15*
X13030000Y53325000D03*
G04 #@! TO.P,J1,16*
G04 #@! TO.N,GND*
X10490000Y53325000D03*
G04 #@! TD*
D13*
G04 #@! TO.P,U1,8*
G04 #@! TO.N,Net-(U1-Pad8)*
X33350000Y50150000D03*
G04 #@! TO.P,U1,7*
G04 #@! TO.N,Net-(U1-Pad7)*
X35890000Y50150000D03*
G04 #@! TO.P,U1,6*
G04 #@! TO.N,LAT*
X38430000Y50150000D03*
G04 #@! TO.P,U1,5*
G04 #@! TO.N,Net-(U1-Pad5)*
X40970000Y50150000D03*
G04 #@! TO.P,U1,4*
G04 #@! TO.N,B1*
X43510000Y50150000D03*
G04 #@! TO.P,U1,3*
G04 #@! TO.N,G1*
X46050000Y50150000D03*
G04 #@! TO.P,U1,2*
G04 #@! TO.N,GND*
X48590000Y50150000D03*
G04 #@! TO.P,U1,1*
G04 #@! TO.N,+5V*
X51130000Y50150000D03*
G04 #@! TO.P,U1,16*
G04 #@! TO.N,Net-(U1-Pad16)*
X51130000Y27290000D03*
G04 #@! TO.P,U1,15*
G04 #@! TO.N,R2*
X48590000Y27290000D03*
G04 #@! TO.P,U1,14*
G04 #@! TO.N,G2*
X46050000Y27290000D03*
G04 #@! TO.P,U1,13*
G04 #@! TO.N,B2*
X43510000Y27290000D03*
G04 #@! TO.P,U1,12*
G04 #@! TO.N,R1*
X40970000Y27290000D03*
G04 #@! TO.P,U1,11*
G04 #@! TO.N,CLK*
X38430000Y27290000D03*
G04 #@! TO.P,U1,10*
G04 #@! TO.N,Net-(U1-Pad10)*
X35890000Y27290000D03*
G04 #@! TO.P,U1,9*
G04 #@! TO.N,Net-(U1-Pad9)*
X33350000Y27290000D03*
G04 #@! TD*
D14*
G04 #@! TO.P,F1,1*
G04 #@! TO.N,+5V*
X9220000Y27290000D03*
D15*
G04 #@! TO.P,F1,2*
G04 #@! TO.N,Net-(F1-Pad2)*
X9220000Y12050000D03*
G04 #@! TD*
D16*
G04 #@! TO.P,J2,1*
G04 #@! TO.N,Net-(F1-Pad2)*
X7950000Y6970000D03*
D17*
G04 #@! TO.P,J2,2*
G04 #@! TO.N,GND*
X7950000Y3470000D03*
G04 #@! TD*
D18*
G04 #@! TO.N,*
X25000000Y55000000D03*
X57000000Y55000000D03*
X25000000Y23000000D03*
X57000000Y23000000D03*
D19*
X60000000Y60000000D03*
X0Y60000000D03*
X60000000Y0D03*
X0Y0D03*
D20*
G04 #@! TO.N,+5V*
X14300000Y27290000D03*
X51130000Y57870000D03*
G04 #@! TO.N,R1*
X18110000Y34910000D03*
G04 #@! TO.N,G1*
X24000000Y37000000D03*
G04 #@! TO.N,B1*
X22000000Y40000000D03*
G04 #@! TO.N,GND*
X5000000Y54000000D03*
X5165000Y43165000D03*
X6475030Y37000000D03*
X41607792Y58025000D03*
X3000000Y12000000D03*
G04 #@! TO.N,B2*
X18000000Y43000000D03*
G04 #@! TO.N,A*
X22000000Y45000000D03*
G04 #@! TO.N,C*
X21285000Y48245000D03*
G04 #@! TD*
D21*
G04 #@! TO.N,+5V*
X51130000Y50150000D02*
X51130000Y55130000D01*
X51130000Y55130000D02*
X51130000Y57870000D01*
G04 #@! TO.N,Net-(F1-Pad2)*
X9220000Y12050000D02*
X9220000Y8240000D01*
X9220000Y8240000D02*
X7950000Y6970000D01*
G04 #@! TO.N,R1*
X13665000Y34910000D02*
X13030000Y35545000D01*
X18110000Y34910000D02*
X13665000Y34910000D01*
G04 #@! TO.N,G1*
X16000000Y31100000D02*
X10538686Y31100000D01*
X16434002Y31100000D02*
X16000000Y31100000D01*
X10490000Y31148686D02*
X10490000Y35545000D01*
X10538686Y31100000D02*
X10490000Y31148686D01*
X18100000Y31100000D02*
X24000000Y37000000D01*
X16000000Y31100000D02*
X18100000Y31100000D01*
G04 #@! TO.N,B1*
X20085000Y38085000D02*
X22000000Y40000000D01*
X13030000Y38085000D02*
X20085000Y38085000D01*
G04 #@! TO.N,GND*
X48590000Y50150000D02*
X48590000Y51422792D01*
X25730000Y8875000D02*
X25730000Y3160000D01*
X13665000Y8875000D02*
X25730000Y8875000D01*
X25730000Y3160000D02*
X25730000Y1890000D01*
X7950000Y3470000D02*
X12070000Y3470000D01*
X13665000Y5065000D02*
X13665000Y8875000D01*
X12070000Y3470000D02*
X13665000Y5065000D01*
X9268686Y53325000D02*
X8593686Y54000000D01*
X10490000Y53325000D02*
X9268686Y53325000D01*
X8593686Y54000000D02*
X5000000Y54000000D01*
X10490000Y43165000D02*
X5165000Y43165000D01*
X10490000Y38085000D02*
X7085000Y38085000D01*
X7085000Y38085000D02*
X6475030Y37475030D01*
X6475030Y37475030D02*
X6475030Y37000000D01*
X41607792Y58025000D02*
X41607792Y58405000D01*
X48590000Y51422792D02*
X41607792Y58025000D01*
X3000000Y12000000D02*
X3000000Y5000000D01*
X4530000Y3470000D02*
X7950000Y3470000D01*
X3000000Y5000000D02*
X4530000Y3470000D01*
G04 #@! TO.N,R2*
X48590000Y26017208D02*
X48590000Y27290000D01*
X47862791Y25289999D02*
X48590000Y26017208D01*
X44780000Y25599998D02*
X45089999Y25289999D01*
X44470001Y25289999D02*
X44780000Y25599998D01*
X42549999Y25289999D02*
X44470001Y25289999D01*
X34310001Y25289999D02*
X34620000Y25599998D01*
X31000000Y26679998D02*
X32389999Y25289999D01*
X31000000Y39250000D02*
X31000000Y26679998D01*
X41930001Y25289999D02*
X42240000Y25599998D01*
X32389999Y25289999D02*
X34310001Y25289999D01*
X29625000Y40625000D02*
X31000000Y39250000D01*
X34620000Y25599998D02*
X34929999Y25289999D01*
X34929999Y25289999D02*
X36850001Y25289999D01*
X36850001Y25289999D02*
X37160000Y25599998D01*
X45089999Y25289999D02*
X47862791Y25289999D01*
X39700000Y25599998D02*
X40009999Y25289999D01*
X37160000Y25599998D02*
X37469999Y25289999D01*
X37469999Y25289999D02*
X39390001Y25289999D01*
X39390001Y25289999D02*
X39700000Y25599998D01*
X40009999Y25289999D02*
X41930001Y25289999D01*
X42240000Y25599998D02*
X42549999Y25289999D01*
X14251314Y40625000D02*
X13030000Y40625000D01*
X19220998Y40625000D02*
X14251314Y40625000D01*
X20895999Y42300001D02*
X19220998Y40625000D01*
X23104001Y42300001D02*
X20895999Y42300001D01*
X24779002Y40625000D02*
X23104001Y42300001D01*
X29625000Y40625000D02*
X24779002Y40625000D01*
G04 #@! TO.N,G2*
X46050000Y31100000D02*
X46050000Y27290000D01*
X52400000Y31100000D02*
X46050000Y31100000D01*
X53670000Y26020000D02*
X53670000Y29830000D01*
X51439989Y23789989D02*
X53670000Y26020000D01*
X31768675Y23789989D02*
X51439989Y23789989D01*
X28268664Y27290000D02*
X31768675Y23789989D01*
X6093686Y40625000D02*
X4175030Y38706344D01*
X10490000Y40625000D02*
X6093686Y40625000D01*
X4175030Y38706344D02*
X4175030Y24714970D01*
X53670000Y29830000D02*
X52400000Y31100000D01*
X4175030Y24714970D02*
X20745634Y24714970D01*
X20745634Y24714970D02*
X23320664Y27290000D01*
X23320664Y27290000D02*
X28268664Y27290000D01*
G04 #@! TO.N,B2*
X17835000Y43165000D02*
X18000000Y43000000D01*
X13030000Y43165000D02*
X17835000Y43165000D01*
G04 #@! TO.N,A*
X21410000Y45000000D02*
X22000000Y45000000D01*
X20705000Y45705000D02*
X21410000Y45000000D01*
X13030000Y45705000D02*
X20705000Y45705000D01*
G04 #@! TO.N,B*
X40970000Y18351314D02*
X40970000Y17130000D01*
X30810000Y20940000D02*
X38381314Y20940000D01*
X23751999Y25600001D02*
X26149999Y25600001D01*
X3505000Y45705000D02*
X2675020Y44875020D01*
X10490000Y45705000D02*
X3505000Y45705000D01*
X26149999Y25600001D02*
X30810000Y20940000D01*
X2675020Y44875020D02*
X2675020Y22404980D01*
X2675020Y22404980D02*
X2870000Y22210000D01*
X38381314Y20940000D02*
X40970000Y18351314D01*
X2870000Y22210000D02*
X20361998Y22210000D01*
X20361998Y22210000D02*
X23751999Y25600001D01*
G04 #@! TO.N,C*
X21285000Y48245000D02*
X21285000Y48245000D01*
X21285000Y48245000D02*
X13030000Y48245000D01*
G04 #@! TO.N,D*
X35570000Y13000000D02*
X35890000Y13320000D01*
X15000000Y13000000D02*
X35570000Y13000000D01*
X12140000Y15860000D02*
X15000000Y13000000D01*
X35890000Y13320000D02*
X35890000Y17130000D01*
X6093686Y48245000D02*
X5458686Y48880000D01*
X10490000Y48245000D02*
X6093686Y48245000D01*
X5458686Y48880000D02*
X1600000Y48880000D01*
X1600000Y48880000D02*
X1175010Y48455010D01*
X1175010Y48455010D02*
X1175010Y15860000D01*
X1175010Y15860000D02*
X12140000Y15860000D01*
G04 #@! TO.N,CLK*
X38430000Y28562792D02*
X38430000Y27290000D01*
X38430000Y39990000D02*
X38430000Y27290000D01*
X30420000Y48000000D02*
X38430000Y39990000D01*
X28933666Y48000000D02*
X30420000Y48000000D01*
X13030000Y50785000D02*
X26148666Y50785000D01*
X26148666Y50785000D02*
X28933666Y48000000D01*
G04 #@! TO.N,LAT*
X14300000Y54595000D02*
X13030000Y53325000D01*
X38430000Y50150000D02*
X38430000Y55865000D01*
X38430000Y55865000D02*
X30810000Y55865000D01*
X16840000Y54595000D02*
X14300000Y54595000D01*
X16840000Y56500000D02*
X16840000Y54595000D01*
X1175010Y56500000D02*
X16840000Y56500000D01*
X1175010Y51420000D02*
X1175010Y56500000D01*
X10490000Y50785000D02*
X1810010Y50785000D01*
X1810010Y50785000D02*
X1175010Y51420000D01*
X30810000Y55865000D02*
X27000000Y52055000D01*
X22309991Y52285009D02*
X20000000Y54595000D01*
X26769991Y52285009D02*
X22309991Y52285009D01*
X27000000Y52055000D02*
X26769991Y52285009D01*
X20015000Y54595000D02*
X20000000Y54595000D01*
X20000000Y54595000D02*
X16840000Y54595000D01*
X43510000Y3510000D02*
X43510000Y1890000D01*
X55633601Y15633601D02*
X43510000Y3510000D01*
X55633601Y19366399D02*
X55633601Y15633601D01*
X38430000Y50150000D02*
X38430000Y47191334D01*
X38430000Y47191334D02*
X55170010Y30451324D01*
X55170009Y25018011D02*
X54000000Y23848002D01*
X54000000Y23848002D02*
X54000000Y21000000D01*
X55170010Y30451324D02*
X55170009Y25018011D01*
X54000000Y21000000D02*
X55633601Y19366399D01*
G04 #@! TD*
D22*
G04 #@! TO.N,GND*
G36*
X52712352Y15696778D02*
X53333719Y15439400D01*
X53704160Y15439400D01*
X42727833Y4463072D01*
X42625383Y4394617D01*
X42354192Y3988751D01*
X42283000Y3630846D01*
X42283000Y3630843D01*
X42258963Y3510000D01*
X42283000Y3389157D01*
X42283000Y3053870D01*
X42240000Y3010870D01*
X41927648Y3323222D01*
X41306281Y3580600D01*
X40633719Y3580600D01*
X40012352Y3323222D01*
X39700000Y3010870D01*
X39387648Y3323222D01*
X38766281Y3580600D01*
X38093719Y3580600D01*
X37472352Y3323222D01*
X37160000Y3010870D01*
X36847648Y3323222D01*
X36226281Y3580600D01*
X35553719Y3580600D01*
X34932352Y3323222D01*
X34620000Y3010870D01*
X34307648Y3323222D01*
X33686281Y3580600D01*
X33013719Y3580600D01*
X32392352Y3323222D01*
X32080000Y3010870D01*
X31767648Y3323222D01*
X31146281Y3580600D01*
X30473719Y3580600D01*
X29852352Y3323222D01*
X29540000Y3010870D01*
X29227648Y3323222D01*
X28606281Y3580600D01*
X27933719Y3580600D01*
X27312352Y3323222D01*
X26836778Y2847648D01*
X26579400Y2226281D01*
X26579400Y1553719D01*
X26836778Y932352D01*
X26867130Y902000D01*
X24592870Y902000D01*
X24623222Y932352D01*
X24880600Y1553719D01*
X24880600Y2226281D01*
X24623222Y2847648D01*
X24147648Y3323222D01*
X23526281Y3580600D01*
X22853719Y3580600D01*
X22232352Y3323222D01*
X21920000Y3010870D01*
X21607648Y3323222D01*
X20986281Y3580600D01*
X20313719Y3580600D01*
X19692352Y3323222D01*
X19629566Y3260436D01*
X19569833Y3349833D01*
X19296279Y3532616D01*
X18973600Y3596801D01*
X17246400Y3596801D01*
X16923721Y3532616D01*
X16650167Y3349833D01*
X16467384Y3076279D01*
X16403199Y2753600D01*
X16403199Y1026400D01*
X16427944Y902000D01*
X974661Y902000D01*
X902000Y974661D01*
X902000Y8170000D01*
X5906799Y8170000D01*
X5906799Y5770000D01*
X5970984Y5447321D01*
X6153767Y5173767D01*
X6427321Y4990984D01*
X6750000Y4926799D01*
X9150000Y4926799D01*
X9472679Y4990984D01*
X9746233Y5173767D01*
X9929016Y5447321D01*
X9993201Y5770000D01*
X9993201Y7277961D01*
X10002169Y7286930D01*
X10104617Y7355383D01*
X10375808Y7761248D01*
X10447000Y8119153D01*
X10447000Y8119156D01*
X10471037Y8239999D01*
X10447000Y8360842D01*
X10447000Y10191466D01*
X10825577Y10444423D01*
X11317788Y11181068D01*
X11490629Y12050000D01*
X11317788Y12918932D01*
X10825577Y13655577D01*
X10088932Y14147788D01*
X9439338Y14277000D01*
X9000662Y14277000D01*
X8351068Y14147788D01*
X7614423Y13655577D01*
X7122212Y12918932D01*
X6949371Y12050000D01*
X7122212Y11181068D01*
X7614423Y10444423D01*
X7993000Y10191465D01*
X7993001Y9013201D01*
X6750000Y9013201D01*
X6427321Y8949016D01*
X6153767Y8766233D01*
X5970984Y8492679D01*
X5906799Y8170000D01*
X902000Y8170000D01*
X902000Y14663267D01*
X1054163Y14633000D01*
X1175010Y14608962D01*
X1295857Y14633000D01*
X11631761Y14633000D01*
X14046930Y12217830D01*
X14115383Y12115383D01*
X14521248Y11844192D01*
X14879153Y11773000D01*
X14879157Y11773000D01*
X15000000Y11748963D01*
X15120843Y11773000D01*
X35449157Y11773000D01*
X35570000Y11748963D01*
X35690843Y11773000D01*
X35690847Y11773000D01*
X36048752Y11844192D01*
X36454617Y12115383D01*
X36523072Y12217833D01*
X36672167Y12366928D01*
X36774617Y12435383D01*
X37045808Y12841248D01*
X37117000Y13199153D01*
X37117000Y13199156D01*
X37141037Y13319999D01*
X37117000Y13440842D01*
X37117000Y15966130D01*
X37160000Y16009130D01*
X37472352Y15696778D01*
X38093719Y15439400D01*
X38766281Y15439400D01*
X39387648Y15696778D01*
X39700000Y16009130D01*
X40012352Y15696778D01*
X40633719Y15439400D01*
X41306281Y15439400D01*
X41927648Y15696778D01*
X42240000Y16009130D01*
X42552352Y15696778D01*
X43173719Y15439400D01*
X43846281Y15439400D01*
X44467648Y15696778D01*
X44780000Y16009130D01*
X45092352Y15696778D01*
X45713719Y15439400D01*
X46386281Y15439400D01*
X47007648Y15696778D01*
X47320000Y16009130D01*
X47632352Y15696778D01*
X48253719Y15439400D01*
X48926281Y15439400D01*
X49547648Y15696778D01*
X49860000Y16009130D01*
X50172352Y15696778D01*
X50793719Y15439400D01*
X51466281Y15439400D01*
X52087648Y15696778D01*
X52400000Y16009130D01*
X52712352Y15696778D01*
X52712352Y15696778D01*
G37*
X52712352Y15696778D02*
X53333719Y15439400D01*
X53704160Y15439400D01*
X42727833Y4463072D01*
X42625383Y4394617D01*
X42354192Y3988751D01*
X42283000Y3630846D01*
X42283000Y3630843D01*
X42258963Y3510000D01*
X42283000Y3389157D01*
X42283000Y3053870D01*
X42240000Y3010870D01*
X41927648Y3323222D01*
X41306281Y3580600D01*
X40633719Y3580600D01*
X40012352Y3323222D01*
X39700000Y3010870D01*
X39387648Y3323222D01*
X38766281Y3580600D01*
X38093719Y3580600D01*
X37472352Y3323222D01*
X37160000Y3010870D01*
X36847648Y3323222D01*
X36226281Y3580600D01*
X35553719Y3580600D01*
X34932352Y3323222D01*
X34620000Y3010870D01*
X34307648Y3323222D01*
X33686281Y3580600D01*
X33013719Y3580600D01*
X32392352Y3323222D01*
X32080000Y3010870D01*
X31767648Y3323222D01*
X31146281Y3580600D01*
X30473719Y3580600D01*
X29852352Y3323222D01*
X29540000Y3010870D01*
X29227648Y3323222D01*
X28606281Y3580600D01*
X27933719Y3580600D01*
X27312352Y3323222D01*
X26836778Y2847648D01*
X26579400Y2226281D01*
X26579400Y1553719D01*
X26836778Y932352D01*
X26867130Y902000D01*
X24592870Y902000D01*
X24623222Y932352D01*
X24880600Y1553719D01*
X24880600Y2226281D01*
X24623222Y2847648D01*
X24147648Y3323222D01*
X23526281Y3580600D01*
X22853719Y3580600D01*
X22232352Y3323222D01*
X21920000Y3010870D01*
X21607648Y3323222D01*
X20986281Y3580600D01*
X20313719Y3580600D01*
X19692352Y3323222D01*
X19629566Y3260436D01*
X19569833Y3349833D01*
X19296279Y3532616D01*
X18973600Y3596801D01*
X17246400Y3596801D01*
X16923721Y3532616D01*
X16650167Y3349833D01*
X16467384Y3076279D01*
X16403199Y2753600D01*
X16403199Y1026400D01*
X16427944Y902000D01*
X974661Y902000D01*
X902000Y974661D01*
X902000Y8170000D01*
X5906799Y8170000D01*
X5906799Y5770000D01*
X5970984Y5447321D01*
X6153767Y5173767D01*
X6427321Y4990984D01*
X6750000Y4926799D01*
X9150000Y4926799D01*
X9472679Y4990984D01*
X9746233Y5173767D01*
X9929016Y5447321D01*
X9993201Y5770000D01*
X9993201Y7277961D01*
X10002169Y7286930D01*
X10104617Y7355383D01*
X10375808Y7761248D01*
X10447000Y8119153D01*
X10447000Y8119156D01*
X10471037Y8239999D01*
X10447000Y8360842D01*
X10447000Y10191466D01*
X10825577Y10444423D01*
X11317788Y11181068D01*
X11490629Y12050000D01*
X11317788Y12918932D01*
X10825577Y13655577D01*
X10088932Y14147788D01*
X9439338Y14277000D01*
X9000662Y14277000D01*
X8351068Y14147788D01*
X7614423Y13655577D01*
X7122212Y12918932D01*
X6949371Y12050000D01*
X7122212Y11181068D01*
X7614423Y10444423D01*
X7993000Y10191465D01*
X7993001Y9013201D01*
X6750000Y9013201D01*
X6427321Y8949016D01*
X6153767Y8766233D01*
X5970984Y8492679D01*
X5906799Y8170000D01*
X902000Y8170000D01*
X902000Y14663267D01*
X1054163Y14633000D01*
X1175010Y14608962D01*
X1295857Y14633000D01*
X11631761Y14633000D01*
X14046930Y12217830D01*
X14115383Y12115383D01*
X14521248Y11844192D01*
X14879153Y11773000D01*
X14879157Y11773000D01*
X15000000Y11748963D01*
X15120843Y11773000D01*
X35449157Y11773000D01*
X35570000Y11748963D01*
X35690843Y11773000D01*
X35690847Y11773000D01*
X36048752Y11844192D01*
X36454617Y12115383D01*
X36523072Y12217833D01*
X36672167Y12366928D01*
X36774617Y12435383D01*
X37045808Y12841248D01*
X37117000Y13199153D01*
X37117000Y13199156D01*
X37141037Y13319999D01*
X37117000Y13440842D01*
X37117000Y15966130D01*
X37160000Y16009130D01*
X37472352Y15696778D01*
X38093719Y15439400D01*
X38766281Y15439400D01*
X39387648Y15696778D01*
X39700000Y16009130D01*
X40012352Y15696778D01*
X40633719Y15439400D01*
X41306281Y15439400D01*
X41927648Y15696778D01*
X42240000Y16009130D01*
X42552352Y15696778D01*
X43173719Y15439400D01*
X43846281Y15439400D01*
X44467648Y15696778D01*
X44780000Y16009130D01*
X45092352Y15696778D01*
X45713719Y15439400D01*
X46386281Y15439400D01*
X47007648Y15696778D01*
X47320000Y16009130D01*
X47632352Y15696778D01*
X48253719Y15439400D01*
X48926281Y15439400D01*
X49547648Y15696778D01*
X49860000Y16009130D01*
X50172352Y15696778D01*
X50793719Y15439400D01*
X51466281Y15439400D01*
X52087648Y15696778D01*
X52400000Y16009130D01*
X52712352Y15696778D01*
G36*
X22673000Y22537131D02*
X23027264Y21681860D01*
X23681860Y21027264D01*
X24537131Y20673000D01*
X25462869Y20673000D01*
X26318140Y21027264D01*
X26972736Y21681860D01*
X27327000Y22537131D01*
X27327000Y22687760D01*
X29856932Y20157827D01*
X29925383Y20055383D01*
X30027827Y19986932D01*
X30027831Y19986928D01*
X30226321Y19854302D01*
X30331248Y19784192D01*
X30689153Y19713000D01*
X30689157Y19713000D01*
X30810000Y19688963D01*
X30930843Y19713000D01*
X37873075Y19713000D01*
X38765475Y18820600D01*
X38093719Y18820600D01*
X37472352Y18563222D01*
X37160000Y18250870D01*
X36847648Y18563222D01*
X36226281Y18820600D01*
X35553719Y18820600D01*
X34932352Y18563222D01*
X34620000Y18250870D01*
X34307648Y18563222D01*
X33686281Y18820600D01*
X33013719Y18820600D01*
X32392352Y18563222D01*
X32080000Y18250870D01*
X31767648Y18563222D01*
X31146281Y18820600D01*
X30473719Y18820600D01*
X29852352Y18563222D01*
X29540000Y18250870D01*
X29227648Y18563222D01*
X28606281Y18820600D01*
X27933719Y18820600D01*
X27312352Y18563222D01*
X27000000Y18250870D01*
X26687648Y18563222D01*
X26066281Y18820600D01*
X25393719Y18820600D01*
X24772352Y18563222D01*
X24460000Y18250870D01*
X24147648Y18563222D01*
X23526281Y18820600D01*
X22853719Y18820600D01*
X22232352Y18563222D01*
X21756778Y18087648D01*
X21499400Y17466281D01*
X21499400Y16793719D01*
X21756778Y16172352D01*
X22232352Y15696778D01*
X22853719Y15439400D01*
X23526281Y15439400D01*
X24147648Y15696778D01*
X24460000Y16009130D01*
X24772352Y15696778D01*
X25393719Y15439400D01*
X26066281Y15439400D01*
X26687648Y15696778D01*
X27000000Y16009130D01*
X27312352Y15696778D01*
X27933719Y15439400D01*
X28606281Y15439400D01*
X29227648Y15696778D01*
X29540000Y16009130D01*
X29852352Y15696778D01*
X30473719Y15439400D01*
X31146281Y15439400D01*
X31767648Y15696778D01*
X32080000Y16009130D01*
X32392352Y15696778D01*
X33013719Y15439400D01*
X33686281Y15439400D01*
X34307648Y15696778D01*
X34620000Y16009130D01*
X34663001Y15966129D01*
X34663000Y14227000D01*
X15508240Y14227000D01*
X13093072Y16642167D01*
X13024617Y16744617D01*
X12618752Y17015808D01*
X12260847Y17087000D01*
X12260843Y17087000D01*
X12140000Y17111037D01*
X12019157Y17087000D01*
X2402010Y17087000D01*
X2402010Y17466281D01*
X16419400Y17466281D01*
X16419400Y16793719D01*
X16676778Y16172352D01*
X17152352Y15696778D01*
X17773719Y15439400D01*
X18446281Y15439400D01*
X19067648Y15696778D01*
X19543222Y16172352D01*
X19800600Y16793719D01*
X19800600Y17466281D01*
X19543222Y18087648D01*
X19067648Y18563222D01*
X18446281Y18820600D01*
X17773719Y18820600D01*
X17152352Y18563222D01*
X16676778Y18087648D01*
X16419400Y17466281D01*
X2402010Y17466281D01*
X2402010Y21052051D01*
X2749153Y20983000D01*
X2749156Y20983000D01*
X2869999Y20958963D01*
X2990842Y20983000D01*
X20241155Y20983000D01*
X20361998Y20958963D01*
X20482841Y20983000D01*
X20482845Y20983000D01*
X20840750Y21054192D01*
X21246615Y21325383D01*
X21315070Y21427833D01*
X22673000Y22785763D01*
X22673000Y22537131D01*
X22673000Y22537131D01*
G37*
X22673000Y22537131D02*
X23027264Y21681860D01*
X23681860Y21027264D01*
X24537131Y20673000D01*
X25462869Y20673000D01*
X26318140Y21027264D01*
X26972736Y21681860D01*
X27327000Y22537131D01*
X27327000Y22687760D01*
X29856932Y20157827D01*
X29925383Y20055383D01*
X30027827Y19986932D01*
X30027831Y19986928D01*
X30226321Y19854302D01*
X30331248Y19784192D01*
X30689153Y19713000D01*
X30689157Y19713000D01*
X30810000Y19688963D01*
X30930843Y19713000D01*
X37873075Y19713000D01*
X38765475Y18820600D01*
X38093719Y18820600D01*
X37472352Y18563222D01*
X37160000Y18250870D01*
X36847648Y18563222D01*
X36226281Y18820600D01*
X35553719Y18820600D01*
X34932352Y18563222D01*
X34620000Y18250870D01*
X34307648Y18563222D01*
X33686281Y18820600D01*
X33013719Y18820600D01*
X32392352Y18563222D01*
X32080000Y18250870D01*
X31767648Y18563222D01*
X31146281Y18820600D01*
X30473719Y18820600D01*
X29852352Y18563222D01*
X29540000Y18250870D01*
X29227648Y18563222D01*
X28606281Y18820600D01*
X27933719Y18820600D01*
X27312352Y18563222D01*
X27000000Y18250870D01*
X26687648Y18563222D01*
X26066281Y18820600D01*
X25393719Y18820600D01*
X24772352Y18563222D01*
X24460000Y18250870D01*
X24147648Y18563222D01*
X23526281Y18820600D01*
X22853719Y18820600D01*
X22232352Y18563222D01*
X21756778Y18087648D01*
X21499400Y17466281D01*
X21499400Y16793719D01*
X21756778Y16172352D01*
X22232352Y15696778D01*
X22853719Y15439400D01*
X23526281Y15439400D01*
X24147648Y15696778D01*
X24460000Y16009130D01*
X24772352Y15696778D01*
X25393719Y15439400D01*
X26066281Y15439400D01*
X26687648Y15696778D01*
X27000000Y16009130D01*
X27312352Y15696778D01*
X27933719Y15439400D01*
X28606281Y15439400D01*
X29227648Y15696778D01*
X29540000Y16009130D01*
X29852352Y15696778D01*
X30473719Y15439400D01*
X31146281Y15439400D01*
X31767648Y15696778D01*
X32080000Y16009130D01*
X32392352Y15696778D01*
X33013719Y15439400D01*
X33686281Y15439400D01*
X34307648Y15696778D01*
X34620000Y16009130D01*
X34663001Y15966129D01*
X34663000Y14227000D01*
X15508240Y14227000D01*
X13093072Y16642167D01*
X13024617Y16744617D01*
X12618752Y17015808D01*
X12260847Y17087000D01*
X12260843Y17087000D01*
X12140000Y17111037D01*
X12019157Y17087000D01*
X2402010Y17087000D01*
X2402010Y17466281D01*
X16419400Y17466281D01*
X16419400Y16793719D01*
X16676778Y16172352D01*
X17152352Y15696778D01*
X17773719Y15439400D01*
X18446281Y15439400D01*
X19067648Y15696778D01*
X19543222Y16172352D01*
X19800600Y16793719D01*
X19800600Y17466281D01*
X19543222Y18087648D01*
X19067648Y18563222D01*
X18446281Y18820600D01*
X17773719Y18820600D01*
X17152352Y18563222D01*
X16676778Y18087648D01*
X16419400Y17466281D01*
X2402010Y17466281D01*
X2402010Y21052051D01*
X2749153Y20983000D01*
X2749156Y20983000D01*
X2869999Y20958963D01*
X2990842Y20983000D01*
X20241155Y20983000D01*
X20361998Y20958963D01*
X20482841Y20983000D01*
X20482845Y20983000D01*
X20840750Y21054192D01*
X21246615Y21325383D01*
X21315070Y21427833D01*
X22673000Y22785763D01*
X22673000Y22537131D01*
G36*
X49411593Y59018203D02*
X49103000Y58273195D01*
X49103000Y57466805D01*
X49411593Y56721797D01*
X49903000Y56230390D01*
X49903000Y55009154D01*
X49903001Y55009149D01*
X49903000Y51365347D01*
X49665920Y51128267D01*
X49403000Y50493522D01*
X49403000Y49806478D01*
X49665920Y49171733D01*
X50151733Y48685920D01*
X50786478Y48423000D01*
X51473522Y48423000D01*
X52108267Y48685920D01*
X52594080Y49171733D01*
X52857000Y49806478D01*
X52857000Y50493522D01*
X52594080Y51128267D01*
X52357000Y51365347D01*
X52357000Y56230390D01*
X52848407Y56721797D01*
X53157000Y57466805D01*
X53157000Y58273195D01*
X52848407Y59018203D01*
X52768610Y59098000D01*
X59025339Y59098000D01*
X59098001Y59025338D01*
X59098001Y56015723D01*
X58972736Y56318140D01*
X58318140Y56972736D01*
X57462869Y57327000D01*
X56537131Y57327000D01*
X55681860Y56972736D01*
X55027264Y56318140D01*
X54673000Y55462869D01*
X54673000Y54537131D01*
X55027264Y53681860D01*
X55681860Y53027264D01*
X56537131Y52673000D01*
X57462869Y52673000D01*
X58318140Y53027264D01*
X58972736Y53681860D01*
X59098001Y53984277D01*
X59098000Y24015724D01*
X58972736Y24318140D01*
X58318140Y24972736D01*
X57462869Y25327000D01*
X56537131Y25327000D01*
X56397008Y25268959D01*
X56397010Y30330482D01*
X56421047Y30451325D01*
X56397010Y30572171D01*
X56325818Y30930075D01*
X56325818Y30930076D01*
X56123081Y31233493D01*
X56123078Y31233496D01*
X56054627Y31335940D01*
X55952183Y31404391D01*
X39657000Y47699573D01*
X39657000Y48934653D01*
X39700000Y48977653D01*
X39991733Y48685920D01*
X40626478Y48423000D01*
X41313522Y48423000D01*
X41948267Y48685920D01*
X42240000Y48977653D01*
X42531733Y48685920D01*
X43166478Y48423000D01*
X43853522Y48423000D01*
X44488267Y48685920D01*
X44780000Y48977653D01*
X45071733Y48685920D01*
X45706478Y48423000D01*
X46393522Y48423000D01*
X47028267Y48685920D01*
X47514080Y49171733D01*
X47777000Y49806478D01*
X47777000Y50493522D01*
X47514080Y51128267D01*
X47028267Y51614080D01*
X46393522Y51877000D01*
X45706478Y51877000D01*
X45071733Y51614080D01*
X44780000Y51322347D01*
X44488267Y51614080D01*
X43853522Y51877000D01*
X43166478Y51877000D01*
X42531733Y51614080D01*
X42240000Y51322347D01*
X41948267Y51614080D01*
X41313522Y51877000D01*
X40626478Y51877000D01*
X39991733Y51614080D01*
X39700000Y51322347D01*
X39657000Y51365347D01*
X39657000Y55744153D01*
X39681038Y55865000D01*
X39585808Y56343752D01*
X39314617Y56749617D01*
X38908752Y57020808D01*
X38550847Y57092000D01*
X38430000Y57116038D01*
X38309153Y57092000D01*
X30930843Y57092000D01*
X30810000Y57116037D01*
X30689157Y57092000D01*
X30689153Y57092000D01*
X30331248Y57020808D01*
X29925383Y56749617D01*
X29856930Y56647170D01*
X27030093Y53820332D01*
X27327000Y54537131D01*
X27327000Y55462869D01*
X26972736Y56318140D01*
X26318140Y56972736D01*
X25462869Y57327000D01*
X24537131Y57327000D01*
X23681860Y56972736D01*
X23027264Y56318140D01*
X22673000Y55462869D01*
X22673000Y54537131D01*
X23027264Y53681860D01*
X23197115Y53512009D01*
X22818232Y53512009D01*
X20998277Y55331962D01*
X20899617Y55479617D01*
X20493752Y55750808D01*
X20135847Y55822000D01*
X20120843Y55822000D01*
X20000000Y55846037D01*
X19879157Y55822000D01*
X18067000Y55822000D01*
X18067000Y56379153D01*
X18091038Y56500000D01*
X17995808Y56978752D01*
X17724617Y57384617D01*
X17318752Y57655808D01*
X16960847Y57727000D01*
X16840000Y57751038D01*
X16719153Y57727000D01*
X1295857Y57727000D01*
X1175010Y57751038D01*
X1054163Y57727000D01*
X902000Y57696733D01*
X902000Y59025339D01*
X974661Y59098000D01*
X49491390Y59098000D01*
X49411593Y59018203D01*
X49411593Y59018203D01*
G37*
X49411593Y59018203D02*
X49103000Y58273195D01*
X49103000Y57466805D01*
X49411593Y56721797D01*
X49903000Y56230390D01*
X49903000Y55009154D01*
X49903001Y55009149D01*
X49903000Y51365347D01*
X49665920Y51128267D01*
X49403000Y50493522D01*
X49403000Y49806478D01*
X49665920Y49171733D01*
X50151733Y48685920D01*
X50786478Y48423000D01*
X51473522Y48423000D01*
X52108267Y48685920D01*
X52594080Y49171733D01*
X52857000Y49806478D01*
X52857000Y50493522D01*
X52594080Y51128267D01*
X52357000Y51365347D01*
X52357000Y56230390D01*
X52848407Y56721797D01*
X53157000Y57466805D01*
X53157000Y58273195D01*
X52848407Y59018203D01*
X52768610Y59098000D01*
X59025339Y59098000D01*
X59098001Y59025338D01*
X59098001Y56015723D01*
X58972736Y56318140D01*
X58318140Y56972736D01*
X57462869Y57327000D01*
X56537131Y57327000D01*
X55681860Y56972736D01*
X55027264Y56318140D01*
X54673000Y55462869D01*
X54673000Y54537131D01*
X55027264Y53681860D01*
X55681860Y53027264D01*
X56537131Y52673000D01*
X57462869Y52673000D01*
X58318140Y53027264D01*
X58972736Y53681860D01*
X59098001Y53984277D01*
X59098000Y24015724D01*
X58972736Y24318140D01*
X58318140Y24972736D01*
X57462869Y25327000D01*
X56537131Y25327000D01*
X56397008Y25268959D01*
X56397010Y30330482D01*
X56421047Y30451325D01*
X56397010Y30572171D01*
X56325818Y30930075D01*
X56325818Y30930076D01*
X56123081Y31233493D01*
X56123078Y31233496D01*
X56054627Y31335940D01*
X55952183Y31404391D01*
X39657000Y47699573D01*
X39657000Y48934653D01*
X39700000Y48977653D01*
X39991733Y48685920D01*
X40626478Y48423000D01*
X41313522Y48423000D01*
X41948267Y48685920D01*
X42240000Y48977653D01*
X42531733Y48685920D01*
X43166478Y48423000D01*
X43853522Y48423000D01*
X44488267Y48685920D01*
X44780000Y48977653D01*
X45071733Y48685920D01*
X45706478Y48423000D01*
X46393522Y48423000D01*
X47028267Y48685920D01*
X47514080Y49171733D01*
X47777000Y49806478D01*
X47777000Y50493522D01*
X47514080Y51128267D01*
X47028267Y51614080D01*
X46393522Y51877000D01*
X45706478Y51877000D01*
X45071733Y51614080D01*
X44780000Y51322347D01*
X44488267Y51614080D01*
X43853522Y51877000D01*
X43166478Y51877000D01*
X42531733Y51614080D01*
X42240000Y51322347D01*
X41948267Y51614080D01*
X41313522Y51877000D01*
X40626478Y51877000D01*
X39991733Y51614080D01*
X39700000Y51322347D01*
X39657000Y51365347D01*
X39657000Y55744153D01*
X39681038Y55865000D01*
X39585808Y56343752D01*
X39314617Y56749617D01*
X38908752Y57020808D01*
X38550847Y57092000D01*
X38430000Y57116038D01*
X38309153Y57092000D01*
X30930843Y57092000D01*
X30810000Y57116037D01*
X30689157Y57092000D01*
X30689153Y57092000D01*
X30331248Y57020808D01*
X29925383Y56749617D01*
X29856930Y56647170D01*
X27030093Y53820332D01*
X27327000Y54537131D01*
X27327000Y55462869D01*
X26972736Y56318140D01*
X26318140Y56972736D01*
X25462869Y57327000D01*
X24537131Y57327000D01*
X23681860Y56972736D01*
X23027264Y56318140D01*
X22673000Y55462869D01*
X22673000Y54537131D01*
X23027264Y53681860D01*
X23197115Y53512009D01*
X22818232Y53512009D01*
X20998277Y55331962D01*
X20899617Y55479617D01*
X20493752Y55750808D01*
X20135847Y55822000D01*
X20120843Y55822000D01*
X20000000Y55846037D01*
X19879157Y55822000D01*
X18067000Y55822000D01*
X18067000Y56379153D01*
X18091038Y56500000D01*
X17995808Y56978752D01*
X17724617Y57384617D01*
X17318752Y57655808D01*
X16960847Y57727000D01*
X16840000Y57751038D01*
X16719153Y57727000D01*
X1295857Y57727000D01*
X1175010Y57751038D01*
X1054163Y57727000D01*
X902000Y57696733D01*
X902000Y59025339D01*
X974661Y59098000D01*
X49491390Y59098000D01*
X49411593Y59018203D01*
G36*
X24300250Y39469192D02*
X24658155Y39398000D01*
X24658158Y39398000D01*
X24779001Y39373963D01*
X24899844Y39398000D01*
X29116760Y39398000D01*
X29773000Y38741760D01*
X29773001Y27520902D01*
X29221736Y28072167D01*
X29153281Y28174617D01*
X28747416Y28445808D01*
X28389511Y28517000D01*
X28389507Y28517000D01*
X28268664Y28541037D01*
X28147821Y28517000D01*
X23441506Y28517000D01*
X23320663Y28541037D01*
X23199820Y28517000D01*
X23199817Y28517000D01*
X22841912Y28445808D01*
X22576204Y28268267D01*
X22436047Y28174617D01*
X22367594Y28072170D01*
X20237395Y25941970D01*
X15818580Y25941970D01*
X16018407Y26141797D01*
X16327000Y26886805D01*
X16327000Y27693195D01*
X16018407Y28438203D01*
X15448203Y29008407D01*
X14703195Y29317000D01*
X13896805Y29317000D01*
X13151797Y29008407D01*
X12581593Y28438203D01*
X12273000Y27693195D01*
X12273000Y26886805D01*
X12581593Y26141797D01*
X12781420Y25941970D01*
X11021424Y25941970D01*
X11107960Y26028506D01*
X11447000Y26847022D01*
X11447000Y27732978D01*
X11107960Y28551494D01*
X10481494Y29177960D01*
X9662978Y29517000D01*
X8777022Y29517000D01*
X7958506Y29177960D01*
X7332040Y28551494D01*
X6993000Y27732978D01*
X6993000Y26847022D01*
X7332040Y26028506D01*
X7418576Y25941970D01*
X5402030Y25941970D01*
X5402030Y38198105D01*
X6601926Y39398000D01*
X9283337Y39398000D01*
X9830361Y39032490D01*
X10323494Y38934400D01*
X10656506Y38934400D01*
X11149639Y39032490D01*
X11708854Y39406146D01*
X11760000Y39482691D01*
X11811146Y39406146D01*
X11887691Y39355000D01*
X11811146Y39303854D01*
X11437490Y38744639D01*
X11306280Y38085000D01*
X11437490Y37425361D01*
X11672701Y37073344D01*
X11570167Y37004833D01*
X11501656Y36902299D01*
X11149639Y37137510D01*
X10656506Y37235600D01*
X10323494Y37235600D01*
X9830361Y37137510D01*
X9271146Y36763854D01*
X8897490Y36204639D01*
X8766280Y35545000D01*
X8897490Y34885361D01*
X9263001Y34338336D01*
X9263000Y31269529D01*
X9238963Y31148686D01*
X9263000Y31027843D01*
X9263000Y31027840D01*
X9334192Y30669935D01*
X9605383Y30264069D01*
X9634568Y30244568D01*
X9654069Y30215383D01*
X10059934Y29944192D01*
X10417839Y29873000D01*
X10417842Y29873000D01*
X10538685Y29848963D01*
X10659528Y29873000D01*
X17979157Y29873000D01*
X18100000Y29848963D01*
X18220843Y29873000D01*
X18220847Y29873000D01*
X18578752Y29944192D01*
X18984617Y30215383D01*
X19053072Y30317833D01*
X23708240Y34973000D01*
X24403195Y34973000D01*
X25148203Y35281593D01*
X25718407Y35851797D01*
X26027000Y36596805D01*
X26027000Y37403195D01*
X25718407Y38148203D01*
X25148203Y38718407D01*
X24403195Y39027000D01*
X23790979Y39027000D01*
X24027000Y39596805D01*
X24027000Y39651772D01*
X24300250Y39469192D01*
X24300250Y39469192D01*
G37*
X24300250Y39469192D02*
X24658155Y39398000D01*
X24658158Y39398000D01*
X24779001Y39373963D01*
X24899844Y39398000D01*
X29116760Y39398000D01*
X29773000Y38741760D01*
X29773001Y27520902D01*
X29221736Y28072167D01*
X29153281Y28174617D01*
X28747416Y28445808D01*
X28389511Y28517000D01*
X28389507Y28517000D01*
X28268664Y28541037D01*
X28147821Y28517000D01*
X23441506Y28517000D01*
X23320663Y28541037D01*
X23199820Y28517000D01*
X23199817Y28517000D01*
X22841912Y28445808D01*
X22576204Y28268267D01*
X22436047Y28174617D01*
X22367594Y28072170D01*
X20237395Y25941970D01*
X15818580Y25941970D01*
X16018407Y26141797D01*
X16327000Y26886805D01*
X16327000Y27693195D01*
X16018407Y28438203D01*
X15448203Y29008407D01*
X14703195Y29317000D01*
X13896805Y29317000D01*
X13151797Y29008407D01*
X12581593Y28438203D01*
X12273000Y27693195D01*
X12273000Y26886805D01*
X12581593Y26141797D01*
X12781420Y25941970D01*
X11021424Y25941970D01*
X11107960Y26028506D01*
X11447000Y26847022D01*
X11447000Y27732978D01*
X11107960Y28551494D01*
X10481494Y29177960D01*
X9662978Y29517000D01*
X8777022Y29517000D01*
X7958506Y29177960D01*
X7332040Y28551494D01*
X6993000Y27732978D01*
X6993000Y26847022D01*
X7332040Y26028506D01*
X7418576Y25941970D01*
X5402030Y25941970D01*
X5402030Y38198105D01*
X6601926Y39398000D01*
X9283337Y39398000D01*
X9830361Y39032490D01*
X10323494Y38934400D01*
X10656506Y38934400D01*
X11149639Y39032490D01*
X11708854Y39406146D01*
X11760000Y39482691D01*
X11811146Y39406146D01*
X11887691Y39355000D01*
X11811146Y39303854D01*
X11437490Y38744639D01*
X11306280Y38085000D01*
X11437490Y37425361D01*
X11672701Y37073344D01*
X11570167Y37004833D01*
X11501656Y36902299D01*
X11149639Y37137510D01*
X10656506Y37235600D01*
X10323494Y37235600D01*
X9830361Y37137510D01*
X9271146Y36763854D01*
X8897490Y36204639D01*
X8766280Y35545000D01*
X8897490Y34885361D01*
X9263001Y34338336D01*
X9263000Y31269529D01*
X9238963Y31148686D01*
X9263000Y31027843D01*
X9263000Y31027840D01*
X9334192Y30669935D01*
X9605383Y30264069D01*
X9634568Y30244568D01*
X9654069Y30215383D01*
X10059934Y29944192D01*
X10417839Y29873000D01*
X10417842Y29873000D01*
X10538685Y29848963D01*
X10659528Y29873000D01*
X17979157Y29873000D01*
X18100000Y29848963D01*
X18220843Y29873000D01*
X18220847Y29873000D01*
X18578752Y29944192D01*
X18984617Y30215383D01*
X19053072Y30317833D01*
X23708240Y34973000D01*
X24403195Y34973000D01*
X25148203Y35281593D01*
X25718407Y35851797D01*
X26027000Y36596805D01*
X26027000Y37403195D01*
X25718407Y38148203D01*
X25148203Y38718407D01*
X24403195Y39027000D01*
X23790979Y39027000D01*
X24027000Y39596805D01*
X24027000Y39651772D01*
X24300250Y39469192D01*
G36*
X11811146Y44486146D02*
X11887691Y44435000D01*
X11811146Y44383854D01*
X11437490Y43824639D01*
X11306280Y43165000D01*
X11437490Y42505361D01*
X11811146Y41946146D01*
X11887691Y41895000D01*
X11811146Y41843854D01*
X11760000Y41767309D01*
X11708854Y41843854D01*
X11149639Y42217510D01*
X10656506Y42315600D01*
X10323494Y42315600D01*
X9830361Y42217510D01*
X9283337Y41852000D01*
X6214528Y41852000D01*
X6093685Y41876037D01*
X5972842Y41852000D01*
X5972839Y41852000D01*
X5614934Y41780808D01*
X5521545Y41718407D01*
X5209069Y41509617D01*
X5140616Y41407170D01*
X3902020Y40168573D01*
X3902020Y44366781D01*
X4013240Y44478000D01*
X9283337Y44478000D01*
X9830361Y44112490D01*
X10323494Y44014400D01*
X10656506Y44014400D01*
X11149639Y44112490D01*
X11708854Y44486146D01*
X11760000Y44562691D01*
X11811146Y44486146D01*
X11811146Y44486146D01*
G37*
X11811146Y44486146D02*
X11887691Y44435000D01*
X11811146Y44383854D01*
X11437490Y43824639D01*
X11306280Y43165000D01*
X11437490Y42505361D01*
X11811146Y41946146D01*
X11887691Y41895000D01*
X11811146Y41843854D01*
X11760000Y41767309D01*
X11708854Y41843854D01*
X11149639Y42217510D01*
X10656506Y42315600D01*
X10323494Y42315600D01*
X9830361Y42217510D01*
X9283337Y41852000D01*
X6214528Y41852000D01*
X6093685Y41876037D01*
X5972842Y41852000D01*
X5972839Y41852000D01*
X5614934Y41780808D01*
X5521545Y41718407D01*
X5209069Y41509617D01*
X5140616Y41407170D01*
X3902020Y40168573D01*
X3902020Y44366781D01*
X4013240Y44478000D01*
X9283337Y44478000D01*
X9830361Y44112490D01*
X10323494Y44014400D01*
X10656506Y44014400D01*
X11149639Y44112490D01*
X11708854Y44486146D01*
X11760000Y44562691D01*
X11811146Y44486146D01*
G36*
X12985360Y55015600D02*
X12863494Y55015600D01*
X12370361Y54917510D01*
X11811146Y54543854D01*
X11437490Y53984639D01*
X11306280Y53325000D01*
X11437490Y52665361D01*
X11811146Y52106146D01*
X11887691Y52055000D01*
X11811146Y52003854D01*
X11760000Y51927309D01*
X11708854Y52003854D01*
X11149639Y52377510D01*
X10656506Y52475600D01*
X10323494Y52475600D01*
X9830361Y52377510D01*
X9283337Y52012000D01*
X2402010Y52012000D01*
X2402010Y55273000D01*
X13242760Y55273000D01*
X12985360Y55015600D01*
X12985360Y55015600D01*
G37*
X12985360Y55015600D02*
X12863494Y55015600D01*
X12370361Y54917510D01*
X11811146Y54543854D01*
X11437490Y53984639D01*
X11306280Y53325000D01*
X11437490Y52665361D01*
X11811146Y52106146D01*
X11887691Y52055000D01*
X11811146Y52003854D01*
X11760000Y51927309D01*
X11708854Y52003854D01*
X11149639Y52377510D01*
X10656506Y52475600D01*
X10323494Y52475600D01*
X9830361Y52377510D01*
X9283337Y52012000D01*
X2402010Y52012000D01*
X2402010Y55273000D01*
X13242760Y55273000D01*
X12985360Y55015600D01*
G04 #@! TD*
M02*
