M48
;DRILL file {KiCad (5.0.1)-4} date 09/03/2020 21:41:49
;FORMAT={-:-/ absolute / metric / decimal}
FMAT,2
METRIC,TZ
T1C0.800
T2C1.016
T3C1.200
T4C1.400
%
G90
G05
M71
T1
X0.Y60.
X0.Y0.
X3.Y12.
X5.Y54.
X5.165Y43.165
X6.475Y37.
X14.3Y27.29
X18.Y43.
X18.11Y34.91
X21.285Y48.245
X22.Y45.
X22.Y40.
X24.Y37.
X25.Y55.
X25.Y23.
X41.608Y58.025
X51.13Y57.87
X57.Y55.
X57.Y23.
X60.Y60.
X60.Y0.
T2
X18.11Y17.13
X18.11Y1.89
X20.65Y17.13
X20.65Y1.89
X23.19Y17.13
X23.19Y1.89
X25.73Y17.13
X25.73Y1.89
X28.27Y17.13
X28.27Y1.89
X30.81Y17.13
X30.81Y1.89
X33.35Y17.13
X33.35Y1.89
X35.89Y17.13
X35.89Y1.89
X38.43Y17.13
X38.43Y1.89
X40.97Y17.13
X40.97Y1.89
X43.51Y17.13
X43.51Y1.89
X46.05Y17.13
X46.05Y1.89
X48.59Y17.13
X48.59Y1.89
X51.13Y17.13
X51.13Y1.89
X53.67Y17.13
X53.67Y1.89
X33.35Y50.15
X33.35Y27.29
X35.89Y50.15
X35.89Y27.29
X38.43Y50.15
X38.43Y27.29
X40.97Y50.15
X40.97Y27.29
X43.51Y50.15
X43.51Y27.29
X46.05Y50.15
X46.05Y27.29
X48.59Y50.15
X48.59Y27.29
X51.13Y50.15
X51.13Y27.29
X10.49Y53.325
X10.49Y50.785
X10.49Y48.245
X10.49Y45.705
X10.49Y43.165
X10.49Y40.625
X10.49Y38.085
X10.49Y35.545
X13.03Y53.325
X13.03Y50.785
X13.03Y48.245
X13.03Y45.705
X13.03Y43.165
X13.03Y40.625
X13.03Y38.085
X13.03Y35.545
T3
X7.95Y6.97
X7.95Y3.47
T4
X9.22Y27.29
X9.22Y12.05
T0
M30
